# xmcd CD database file
#
# Track frame offsets:
#	150
#	119520
#	252409
#
# Disc length: 3428 seconds
#
# Revision: 0
# Processed by: cddbd v1.5.1PL2 Copyright (c) Steve Scherf et al.
# Submitted via: CDex 1.51
#
DISCID=250d6203
DTITLE=Awakened Minds, Inc - DreamWalk
DYEAR=1900
DGENRE=New Age
TTITLE0=Dreamtime
TTITLE1=Reflections
TTITLE2=data
EXTD=
EXTT0=
EXTT1=
EXTT2=
PLAYORDER=
